<svg id="Capa_1" enable-background="new 0 0 512 512" height="512" viewBox="0 0 512 512" width="512" xmlns="http://www.w3.org/2000/svg"><g><circle cx="10.062" cy="326.164" r="10"/><path d="m259.293 100.369c-14.014-35.065-47.462-57.721-85.213-57.721-8.991 0-17.909 1.344-26.551 3.967-15.47-11.891-34.82-18.972-55.795-18.972-50.582-.001-91.734 41.151-91.734 91.734v161.509c0 5.478 4.584 10.063 10.063 10.063 5.478 0 10.063-4.584 10.063-10.063v-21.091h143.22v132.827c0 39.486-32.124 71.61-71.61 71.61s-71.61-32.124-71.61-71.61v-20.839c0-5.478-4.584-10.063-10.063-10.063-5.479.001-10.063 4.585-10.063 10.063v20.839c0 50.583 41.152 91.735 91.735 91.735 46.892 0 85.674-35.368 91.084-80.828l7.462 18.661c14.326 35.848 48.867 57.702 85.302 57.701 11.306 0 22.795-2.105 33.918-6.548 46.973-18.768 69.92-72.251 51.154-119.219zm-18.688 7.466 44.623 111.714-101.758 40.652v-140.824c0-21.035-7.121-40.435-19.073-55.927 3.207-.442 6.439-.678 9.684-.678 29.471.001 55.584 17.69 66.524 45.063zm-220.48 131.835v-120.293c0-39.486 32.124-71.61 71.61-71.61s71.61 32.124 71.61 71.61v120.293zm281.908 214.984c-36.663 14.648-78.411-3.265-93.066-39.935l-25.367-63.441c-.039-.098-.089-.188-.131-.284v-69.123l109.224-43.634 49.272 123.351c14.65 36.667-3.264 78.416-39.932 93.066z"/><path d="m470.651 161.728c-2.648-1.473-5.387-2.794-8.192-3.961 2.234-7.37 3.447-15.179 3.447-23.269 0-44.317-36.055-80.371-80.372-80.371s-80.372 36.054-80.372 80.371c0 33.402 20.486 62.102 49.551 74.217-10.936 35.841 4.477 74.992 37.921 93.56 12.324 6.835 25.679 10.079 38.865 10.078 28.279-.002 55.754-14.931 70.42-41.355 21.501-38.748 7.472-87.768-31.268-109.27zm-9.774 17.592c26.043 14.455 37.174 45.489 27.582 72.689l-75.086-42.115c17.115-6.34 31.504-18.345 40.869-33.733 2.273.924 4.495 1.969 6.635 3.159zm-75.343-105.068c29.79 0 54.585 21.739 59.39 50.184h-118.78c4.805-28.445 29.6-50.184 59.39-50.184zm-59.39 70.309h118.781c-4.805 28.445-29.6 50.185-59.39 50.185s-54.586-21.74-59.391-50.185zm76.255 140.118c-25.23-14.007-36.774-43.637-28.269-70.631 2.278.325 4.585.563 6.92.692.336.248 97.646 54.869 97.646 54.869-18.003 22.543-50.241 29.523-76.297 15.07z"/></g></svg>